<svg xmlns="http://www.w3.org/2000/svg" width="47" height="47" viewBox="0 0 47 47"><defs><style>.cls-1 { fill: #9e9e9e; fill-rule: evenodd; }</style></defs><path id="icon" class="cls-1" d="M38.016 11.99H22.01v-2h16.006v2zm0 6H22.01v-2h16.006v2zm0 6.01H22.01v-2h16.006v2zm0 6h-29v-2h29v2zm0 6h-29v-2h29v2zM18 10.99a1 1 0 0 1 1 1v9a1 1 0 0 1-1 1h-7a1 1 0 0 1-1-1v-9a1 1 0 0 1 1-1h7m0-1h-7a2 2 0 0 0-2 2v9a2 2 0 0 0 2 2h7a2 2 0 0 0 2-2v-9a2 2 0 0 0-2-2zM23.5 47A23.5 23.5 0 1 1 47 23.5 23.525 23.525 0 0 1 23.5 47zm0-46A22.5 22.5 0 1 0 46 23.5 22.524 22.524 0 0 0 23.5 1z"/></svg>