<svg xmlns="http://www.w3.org/2000/svg" width="47" height="47" viewBox="0 0 47 47"><defs><style>.cls-1 { fill: #9e9e9e; fill-rule: evenodd; }</style></defs><path id="icon" class="cls-1" d="M33.847 8.31l-20.5 1.7c-.014 0-.026.01-.04.01h-.136A1.15 1.15 0 0 0 12 11.15v25.722A1.15 1.15 0 0 0 13.172 38h.136c.014 0 .026.008.04.008l.09-.008H32.3a1.15 1.15 0 0 0 1.17-1.13v-.53l.377-.03a1.14 1.14 0 0 0 1.147-1.134V9.444a1.14 1.14 0 0 0-1.147-1.133zm-1.9 28.562a.135.135 0 0 1-.146.12H13.173a.135.135 0 0 1-.146-.12v-25.72a.137.137 0 0 1 .146-.123H31.8a.137.137 0 0 1 .146.12v25.722zm2.025-1.693a.124.124 0 0 1-.124.12h-.093l-.788.026V11.15a1.15 1.15 0 0 0-1.17-1.13h-5.9l7.972-.696a.123.123 0 0 1 .1.12V35.18zm-6.1-4.18H17.136a1.166 1.166 0 0 0-1.13 1.2v.6a1.165 1.165 0 0 0 1.13 1.2h10.74a1.165 1.165 0 0 0 1.13-1.2v-.6a1.166 1.166 0 0 0-1.13-1.2zm.13 1.8a.183.183 0 0 1-.13.2H17.136a.182.182 0 0 1-.13-.2v-.6a.18.18 0 0 1 .13-.2h10.74a.18.18 0 0 1 .13.2v.6zM22.5 27a6.5 6.5 0 1 1 6.5-6.5 6.5 6.5 0 0 1-6.5 6.5zm0-12a5.5 5.5 0 1 0 5.5 5.5 5.5 5.5 0 0 0-5.5-5.5zm1 32A23.5 23.5 0 1 1 47 23.5 23.527 23.527 0 0 1 23.5 47zm0-46A22.5 22.5 0 1 0 46 23.5 22.526 22.526 0 0 0 23.5 1z"/></svg>